<svg width="29" height="29" viewBox="0 0 29 29" fill="none" xmlns="http://www.w3.org/2000/svg">
<path d="M17.9626 19.518H15.9364V12.8926C15.9364 12.7723 15.838 12.6738 15.7177 12.6738H14.0771C13.9567 12.6738 13.8583 12.7723 13.8583 12.8926V19.518H11.8376C11.6544 19.518 11.5532 19.7285 11.6653 19.8707L14.7278 23.7453C14.7483 23.7715 14.7744 23.7926 14.8043 23.8071C14.8341 23.8217 14.8669 23.8292 14.9001 23.8292C14.9333 23.8292 14.9661 23.8217 14.9959 23.8071C15.0258 23.7926 15.0519 23.7715 15.0724 23.7453L18.1349 19.8707C18.247 19.7285 18.1458 19.518 17.9626 19.518Z" fill="#272727"/>
<path d="M23.0869 10.232C21.8345 6.92891 18.6435 4.58008 14.9056 4.58008C11.1677 4.58008 7.97671 6.92617 6.72436 10.2293C4.38101 10.8445 2.65015 12.9801 2.65015 15.5176C2.65015 18.5391 5.09741 20.9863 8.11616 20.9863H9.21265C9.33296 20.9863 9.4314 20.8879 9.4314 20.7676V19.127C9.4314 19.0066 9.33296 18.9082 9.21265 18.9082H8.11616C7.19468 18.9082 6.32788 18.5418 5.68257 17.8773C5.03999 17.2156 4.69819 16.3242 4.72827 15.4C4.75288 14.6781 4.99897 14 5.44468 13.4285C5.90132 12.8461 6.54116 12.4223 7.2521 12.2336L8.28843 11.9629L8.66851 10.9621C8.90366 10.3387 9.23179 9.75625 9.64468 9.22852C10.0523 8.70545 10.5351 8.24564 11.0775 7.86406C12.2013 7.07383 13.5248 6.65547 14.9056 6.65547C16.2865 6.65547 17.6099 7.07383 18.7337 7.86406C19.2779 8.24688 19.7591 8.70625 20.1666 9.22852C20.5794 9.75625 20.9076 10.3414 21.1427 10.9621L21.5201 11.9602L22.5537 12.2336C24.0357 12.6328 25.072 13.9809 25.072 15.5176C25.072 16.4227 24.7193 17.2758 24.0794 17.9156C23.7657 18.2312 23.3924 18.4815 22.9812 18.6519C22.5701 18.8222 22.1292 18.9094 21.6841 18.9082H20.5876C20.4673 18.9082 20.3689 19.0066 20.3689 19.127V20.7676C20.3689 20.8879 20.4673 20.9863 20.5876 20.9863H21.6841C24.7029 20.9863 27.1501 18.5391 27.1501 15.5176C27.1501 12.9828 25.4248 10.85 23.0869 10.232Z" fill="#272727"/>
</svg>
